<svg width="100" height="51" viewBox="0 0 100 51" fill="none" xmlns="http://www.w3.org/2000/svg">
<path d="M99.6807 43.8215C100.448 44.2254 99.6807 43.3773 98.9941 42.6906L97.9844 42.6099L99.6807 43.8215Z" fill="#FF522A"/>
<path d="M95.8803 41.035L94.7494 40.6311C94.3859 40.5099 93.982 40.3887 93.5781 40.2676C94.1032 40.4695 94.6686 40.6715 95.1533 40.9138C96.5669 42.2062 94.6282 41.2773 93.982 40.9946C96.6477 42.5293 95.3148 41.035 95.8803 41.035Z" fill="#FF522A"/>
<path d="M91.6799 39.0153C90.3471 38.2883 90.549 38.8133 91.0741 39.2172C91.2357 39.096 92.1646 39.4192 91.6799 39.0153Z" fill="#FF522A"/>
<path d="M6.13867 39.3391C6.25984 39.2987 6.46178 39.1775 6.38101 39.3391C6.66373 39.016 6.66373 38.8544 6.13867 39.3391Z" fill="#FF522A"/>
<path d="M6.37836 39.3794C6.33797 39.4602 6.29757 39.541 6.2168 39.6217C6.25719 39.5813 6.29758 39.5006 6.33797 39.4602L6.37836 39.3794Z" fill="#FF522A"/>
<path d="M33.6842 43.4179C34.29 42.8928 34.8151 42.5293 35.3401 42.2062C35.8652 41.9235 36.3902 41.6004 37.0364 41.1965L38.0058 41.2369C38.6924 40.7926 38.8136 40.6311 38.8943 40.4695C38.9751 40.3079 38.9751 40.1868 39.4598 39.8233C40.1868 39.6213 41.2773 39.1771 42.287 38.7732C43.2967 38.3693 44.1853 37.9654 44.5084 37.8846C45.0334 37.925 44.0237 38.3289 43.8218 38.5712C45.5989 37.8038 45.3162 37.4 47.6587 36.7134L47.7395 36.8345C50.4455 35.744 53.6766 34.9362 57.0289 34.492C60.3811 34.0073 63.895 33.8861 67.1665 33.8861C66.7222 33.8458 66.8433 33.765 66.6818 33.6438C70.1552 33.7246 73.871 34.2093 77.3444 34.8959C80.8582 35.5825 84.1297 36.471 86.9165 37.0768C86.028 36.7537 84.9779 36.2691 83.8874 35.8248C82.7565 35.3805 81.5448 34.8958 80.3332 34.5323C79.1215 34.0881 77.8291 33.8054 76.6578 33.563C76.052 33.4419 75.4865 33.4015 74.9211 33.3207C74.3557 33.2803 73.8306 33.2399 73.3459 33.2803C72.6593 33.038 71.7708 32.8764 70.963 32.836C70.1552 32.7553 69.4686 32.7149 69.1859 32.4321C68.4993 32.3514 67.8531 32.311 67.2472 32.2706C66.9645 32.2706 66.6414 32.2302 66.3587 32.2302C66.076 32.2302 65.7932 32.2302 65.5105 32.2302C64.9854 32.2302 64.4604 32.2706 63.9757 32.2706C63.4911 32.311 63.0064 32.3514 62.5217 32.4321C60.5831 32.6341 58.7252 32.9572 56.0999 33.2803C55.3325 33.3207 55.6557 33.038 55.4133 32.836C56.0999 32.7149 56.7865 32.5533 57.5135 32.4725C58.2001 32.3918 58.9271 32.2302 59.6138 32.1898C58.7656 32.1494 57.877 32.2302 57.0289 32.2302C57.5943 32.0686 58.5233 31.9475 59.4118 31.8667C60.26 31.7859 61.0274 31.6648 61.1889 31.4628C59.331 31.7859 56.9077 32.0283 54.5652 32.3918C52.2226 32.7956 49.9609 33.3207 48.4665 34.0073C48.83 33.9265 49.2338 33.8457 49.6377 33.765C50.0416 33.6842 50.4859 33.563 50.8898 33.4823C51.738 33.2803 52.6669 33.0784 53.5554 32.9572C54.3632 32.9572 55.5749 32.9168 55.5345 33.1187C53.0304 33.765 50.7686 34.29 48.5069 34.9362C46.2451 35.5421 43.9833 36.2287 41.6004 37.2788C40.9946 37.5615 40.308 37.8442 39.7021 38.0462C39.0963 38.2885 38.652 38.4501 38.4905 38.3693C39.2578 37.925 38.5712 38.0462 39.1771 37.6423C38.3693 38.127 38.4097 38.3289 38.3289 38.5308C38.2481 38.7328 38.0866 38.9347 36.8749 39.5002L36.8345 38.652C36.5518 39.2578 35.7844 39.5809 34.9363 39.9848C34.0881 40.3483 33.1591 40.7926 32.4725 41.4792C31.7455 41.6004 32.7149 40.7522 33.9669 39.9848C32.4725 40.7522 32.5533 41.1965 31.4628 41.9235C31.7051 41.5196 31.9071 41.0753 32.1494 40.6714C31.7051 41.3177 31.1801 41.6408 30.6147 41.8427C30.0492 42.085 29.5646 42.1658 29.2011 42.287C29.2011 42.4082 29.3626 42.4485 29.403 42.6101C29.403 42.7716 29.2414 43.0544 28.4337 43.6602C27.747 44.1045 28.1105 43.6198 27.949 43.6198C27.9086 43.7006 27.8682 43.7814 27.7874 43.9429C27.7471 44.0237 27.7067 44.1045 27.6259 44.1853C27.5855 44.266 27.5047 44.4276 27.4239 44.3468C27.1816 44.1853 26.8989 43.8622 26.4546 43.3775C26.4142 43.1755 26.6162 43.2563 26.7777 43.3371C26.9797 43.4179 27.1412 43.539 27.222 43.4583C26.9797 43.0948 26.697 42.812 26.4546 42.5293C26.2123 42.2466 26.0103 41.9639 25.8084 41.6812C24.5563 40.7118 25.6872 41.9639 24.7987 41.4792C23.9505 40.6311 23.9909 40.4695 24.2332 40.3887C24.4756 40.3079 24.9198 40.3079 24.6775 39.8233C25.0814 40.0252 25.4449 40.3079 25.8084 40.5503L26.3334 40.9542C26.4546 41.0349 26.5758 41.1157 26.6566 41.2369C27.1008 41.6004 27.4239 41.9235 27.6259 42.085C27.6663 42.1658 27.7067 42.0447 27.747 42.0447C27.7874 42.0043 27.8278 41.9639 27.8278 41.9235L27.7067 42.0043L27.6663 42.0447L27.6259 42.0043C27.4239 41.8023 27.222 41.56 27.0201 41.3581C26.8989 41.2369 26.7777 41.1561 26.6566 41.0349C26.6162 40.9945 26.5354 40.9138 26.4546 40.8734L26.3738 40.7926L26.2123 40.6714C26.3738 40.6714 26.0103 40.1464 25.7276 39.7829C25.4853 39.4194 25.4045 39.2174 26.2527 39.7829C24.8795 38.3693 23.0216 37.1576 21.0021 36.3902C18.9827 35.6228 16.6805 35.3805 14.7823 35.6229C15.3073 35.6632 16.0343 35.744 15.9132 35.9056C15.4285 35.946 15.065 35.946 14.8227 35.946C14.5803 35.946 14.4188 35.9056 14.2976 35.9056C14.0553 35.8652 14.0149 35.744 13.7726 35.6632C12.359 36.0671 12.6417 36.471 11.8743 36.9961C10.4607 37.198 9.73369 37.5211 9.00669 37.8038C8.84514 37.8846 8.68357 37.9654 8.48163 38.0058C8.32008 38.0866 8.07775 38.1673 7.99697 38.2077C7.75464 38.2885 7.47192 38.3693 7.1892 38.4097C7.22959 38.5712 7.26997 38.6924 7.31036 38.8539C6.86609 38.9751 6.66414 39.2175 6.4218 39.5406C6.17947 39.8637 5.89676 40.2272 5.57365 40.5099C5.53326 40.5503 5.45248 40.6311 5.37171 40.6714C5.37171 40.5907 5.53326 40.3887 5.69481 40.1464C5.81598 39.9848 5.93714 39.7829 6.05831 39.6213C5.93714 39.7829 5.81598 39.904 5.7352 39.9848C5.57365 40.1868 5.49287 40.106 5.45248 40.1464C5.41209 40.1464 5.33131 40.1868 5.04859 40.6714L5.81597 39.1771C5.7352 39.2982 5.61404 39.4194 5.53326 39.5809L5.45248 39.7021L5.41209 39.7425V39.7829C5.41209 39.7021 5.4121 39.6617 5.37171 39.5809C5.37171 39.3386 5.41209 39.0963 5.65442 38.7732C5.3717 38.8943 5.21014 38.2885 5.21014 37.6423C5.16975 37.3192 5.21014 36.9557 5.21014 36.5922C5.21014 36.3902 5.21014 36.2287 5.21014 36.0267C5.21014 35.7036 5.25053 35.3401 5.25053 35.0574L5.61403 35.2594C5.49286 34.6131 5.69481 33.4015 5.93715 32.2706C6.05831 31.7052 6.17948 31.1397 6.30064 30.655C6.38142 30.1704 6.42181 29.7261 6.38143 29.403L6.58337 29.2414C6.62376 28.7972 6.66414 28.3529 6.70453 27.9086C6.74492 27.4643 6.78531 27.0201 6.86608 26.5758C7.31036 25.4853 7.71425 26.0507 7.59309 25.8892C8.40086 23.4255 9.20863 21.5272 10.0972 20.1136C9.81446 19.5078 10.9453 16.9633 11.9955 15.065C13.1667 13.2071 14.4592 11.3492 15.792 9.61252L16.317 8.9663C16.4382 8.80474 16.5594 8.64319 16.7209 8.48163C16.9633 8.15852 17.246 7.8758 17.5287 7.55269C17.8114 7.22958 18.0941 6.94686 18.3769 6.66414C18.5384 6.50258 18.7 6.38142 18.8211 6.21986L18.9423 6.09869C18.9423 6.13908 18.9827 6.17947 18.9827 6.21986L19.0635 6.50258C19.3462 7.26997 19.6693 8.03735 20.1136 8.76435L20.5175 9.37018L21.0425 10.0972C21.406 10.5818 21.8099 11.0261 22.2138 11.4704C22.4158 11.6723 22.6581 11.8743 22.86 12.0762C23.062 12.2782 23.3043 12.4801 23.5466 12.6417C23.789 12.8436 23.9505 12.9648 24.1525 13.0859C24.3544 13.2071 24.5564 13.3283 24.7583 13.4494C25.5661 13.9341 26.5354 14.338 27.5451 14.6611C27.949 14.7823 28.3529 14.863 28.7568 14.9438L28.9183 14.9842H28.9587L28.9183 15.0246L28.7164 15.1458L28.2721 15.3881C27.6663 15.7516 27.0605 16.0747 26.4546 16.4382C25.8084 16.7613 25.243 17.2056 24.5564 17.7307C23.8697 18.2557 23.0216 18.9019 22.0926 19.4674C23.3043 18.9423 23.9505 18.5788 24.5564 18.2557C25.1622 17.8922 25.7276 17.5691 26.8585 17.044C28.7568 16.2767 30.3319 16.0747 32.7956 15.2669L31.0185 15.6304C31.382 15.3881 31.7051 15.1862 31.9475 15.065C31.9879 15.065 31.9879 15.0246 31.9475 15.0246L31.9071 14.9842L31.8667 14.9438L31.8263 14.8631C31.8263 14.8227 31.8263 14.7823 31.8263 14.7015C31.8667 14.6207 31.8667 14.5399 31.7859 14.4592C31.382 14.3784 30.8166 14.2572 30.0088 14.0957L32.0686 13.9341C31.5032 13.8533 30.9378 13.7322 30.3723 13.611C29.8069 13.4494 29.3626 13.2879 28.8375 13.1263L28.4741 13.0052L28.3125 12.9244L28.1509 12.8436C27.949 12.7628 27.7471 12.6417 27.5855 12.5609C27.222 12.3589 26.8585 12.1974 26.7373 12.0358C26.3334 11.9551 25.9296 11.9147 25.5661 11.8743C25.3641 11.7127 25.2026 11.5512 25.041 11.3896C24.9602 11.2685 24.8391 11.1473 24.7583 11.0665C24.5967 10.8646 24.4756 10.6222 24.3544 10.4607C24.1121 10.0972 24.0313 9.77407 24.0717 9.49135L23.8294 9.85485C23.789 9.73368 23.587 9.45096 23.3043 9.04707C23.1831 8.88552 23.0216 8.64318 22.9004 8.44124L22.6985 8.11813C22.6581 8.07774 22.6177 7.99697 22.6177 7.95658C22.5773 7.8758 22.5369 7.83541 22.4965 7.75463C22.4157 7.59308 22.2946 7.43152 22.2138 7.22958C22.133 7.06802 22.0522 6.90647 21.9715 6.70452C21.8503 6.38141 21.7695 6.05831 21.7291 5.85636C21.6484 5.41209 21.7291 5.29092 22.133 5.81597C21.9715 5.49286 21.7695 5.29092 21.5676 4.88703C21.3656 4.48314 21.1637 3.99848 20.9214 3.19071L21.0829 2.26176C20.8406 1.61555 20.5982 0.928938 20.3963 0.363496C20.2751 0.444273 20.1944 0.484662 20.0732 0.56544L19.9116 0.646216C19.8713 0.686605 19.8309 0.686606 19.7501 0.767383C19.5077 1.00972 19.2654 1.21166 19.0231 1.41361C18.5788 1.7771 18.2557 2.01944 18.0942 2.01944C18.9423 1.13088 19.3058 0.565442 19.6693 0C18.7404 0.807774 18.0538 1.45399 17.5287 1.97904C17.0036 2.5041 16.6402 2.90799 16.3574 3.2311C15.8324 3.91771 15.7516 4.28121 15.7112 4.56393C15.6708 4.88704 15.6304 5.16975 15.3477 5.69481C15.1862 5.97753 14.9842 6.30064 14.6611 6.74492C14.4996 6.94686 14.2976 7.22958 14.1361 7.47191C13.9745 7.67386 13.8129 7.91619 13.611 8.15852L13.4091 7.95658L12.884 9.16824L11.7935 10.0568C11.6723 11.1069 10.6626 12.5205 9.6529 14.1764C8.6028 15.792 7.5123 17.5691 7.10842 19.0635C6.66414 20.1944 5.49287 21.3656 4.72549 23.5466H5.16976C4.64471 24.314 3.71576 26.2931 2.8676 28.3125C2.01944 30.3319 1.25205 32.4321 0.605831 33.2399C0.64622 35.0978 0.726999 33.0784 1.05011 33.1591C1.00972 34.0477 0.969334 34.6939 0.888557 35.2594C0.848168 35.4209 0.848163 35.5825 0.807774 35.744C0.767386 35.946 0.727004 36.1479 0.727004 36.3095C0.646227 36.673 0.605828 36.9961 0.56544 37.3192C0.444273 37.9654 0.363501 38.4905 0.242335 39.0963C0.201946 39.4194 0.121171 39.7021 0.0807824 40.0656C0.0403937 40.4291 0 40.7522 0 41.1561C0.201944 42.8524 0.201944 42.1254 0.201944 41.2369C0.201944 40.7926 0.201949 40.3079 0.282726 39.9848C0.323115 39.7021 0.403892 39.6213 0.48467 40.0656C0.48467 40.7118 0.48467 41.2773 0.48467 41.7619C0.48467 42.0043 0.484672 42.2062 0.525061 42.4485C0.565449 42.6505 0.565442 42.812 0.605831 42.9736C0.686608 43.6198 0.807782 44.0641 0.928948 44.5084C1.05011 44.9526 1.17128 45.4373 1.29244 46.2047C1.33283 46.5682 1.41361 47.0529 1.49439 47.6183C1.49439 47.7799 1.53478 47.901 1.53478 48.0626C1.53478 48.1433 1.53477 48.2241 1.57516 48.3049C1.57516 48.3857 1.57516 48.5069 1.61555 48.5069C1.65594 48.5876 1.69633 48.6684 1.73672 48.7896C1.65594 49.1127 1.57517 49.1127 1.49439 49.0723L1.41361 48.9915C1.41361 48.9915 1.37321 48.9107 1.37321 48.83C1.37321 48.7492 1.33284 48.7088 1.33284 48.628C1.29245 48.3857 1.25205 48.1433 1.17127 48.0626C1.25205 48.3453 1.29244 48.6684 1.37321 48.9915C1.45399 49.0319 1.49438 49.1127 1.57516 49.1531C1.61555 49.1531 1.65594 49.2742 1.69633 49.355C1.73672 49.4358 1.7771 49.557 1.81749 49.6377C1.85788 49.6781 1.85789 49.7185 1.89827 49.7993C1.93866 49.9205 1.93866 50.0012 1.97904 50.1224C2.01943 50.3243 2.10022 50.5263 2.14061 50.7686C2.78683 49.8397 3.47344 48.83 4.16005 47.8606C4.48316 47.4164 4.80626 46.9721 5.12937 46.4874C5.29093 46.2451 5.45248 46.0431 5.61403 45.8008C5.77558 45.5585 5.93714 45.3161 6.05831 45.1546C6.34103 44.7911 6.62375 44.4276 6.90647 44.0237L7.10842 43.741C7.18919 43.6602 7.26997 43.539 7.31036 43.4987L7.71425 43.1352C7.99697 42.8928 8.2393 42.6505 8.52202 42.4081C8.80474 42.2062 9.04708 42.0447 9.3298 41.8427L9.73368 41.56L9.81447 41.4792L9.85485 41.4388L9.97602 41.3984L10.4203 41.1561C10.703 41.0349 10.9857 40.9138 11.2685 40.7926C11.5512 40.6714 11.8339 40.5503 12.1166 40.4695C12.2378 40.4291 12.3993 40.3887 12.5205 40.3483C12.6417 40.3079 12.8032 40.2676 12.9244 40.2272C13.1667 40.1868 13.4091 40.1464 13.6514 40.1464C13.8937 40.106 14.1361 40.106 14.4188 40.106C14.9438 40.0656 15.4689 40.106 15.9535 40.1464C16.9633 40.2676 18.0538 40.5503 19.1443 41.0753C20.1944 41.56 21.2445 42.2466 22.133 43.0544C22.3754 43.2563 22.5773 43.4583 22.7792 43.6602C22.9004 43.741 22.9812 43.8622 23.062 43.9833L23.2235 44.1449C23.2639 44.1853 23.3851 44.3064 23.4255 44.3468L23.587 44.5488C24.0313 45.1142 24.4756 45.6796 24.8795 46.2451C25.2833 46.8509 25.7276 47.4568 26.1315 48.0222L26.2931 47.9818C26.4546 48.2645 26.6162 48.5069 26.8181 48.7896C27.6259 48.2645 28.4741 47.6183 29.3222 46.9317C30.0896 46.3259 30.8974 45.72 31.6648 45.0738L31.9475 44.8315L32.109 44.7103L32.1898 44.6699L32.2302 44.6295L32.5533 44.3872C32.7553 44.2257 32.9976 44.0641 33.1995 43.9429C33.6438 43.6198 34.1285 43.3775 34.6535 43.0948L33.6842 43.4179Z" fill="#FF522A"/>
<path d="M62.3195 30.9377L61.8752 30.5742C61.027 30.655 60.2193 30.8165 59.3711 30.9377C59.8961 31.0589 60.2596 31.0589 60.7039 31.0185C61.1482 30.9377 61.6329 30.8973 62.3195 30.9377Z" fill="#FF522A"/>
<path d="M61.8338 32.0691L63.1262 31.8672C62.4396 31.9076 61.753 31.9076 61.0664 31.948C61.2683 31.9883 61.5511 32.0287 61.8338 32.0691Z" fill="#FF522A"/>
<path d="M32.0254 40.2275L32.3485 40.1064L33.3178 39.4197C33.6409 39.1774 33.9641 38.9755 34.3276 38.7735C34.9738 38.3292 35.6604 37.9254 36.347 37.5215L35.2565 38.1677C34.893 38.3696 34.5295 38.612 34.166 38.8543C33.439 39.2582 32.7524 39.7429 32.0254 40.2275Z" fill="#FF522A"/>
<path d="M6.41929 38.6517C6.66162 38.1671 6.86356 38.0863 7.06551 37.7632C6.86356 38.0055 6.62124 38.2882 6.37891 38.6113L6.41929 38.6517Z" fill="#FF522A"/>
<path d="M9.40821 27.0199C9.04471 26.0506 9.93326 25.5659 9.00432 26.3333C8.7216 27.5046 9.32743 26.5756 9.40821 27.0199Z" fill="#FF522A"/>
<path d="M10.2197 22.2949C9.89656 22.9411 9.85617 23.345 9.77539 23.7489C10.4216 22.9815 10.1389 22.8604 10.2197 22.2949Z" fill="#FF522A"/>
<path d="M57.7531 44.4683C57.5511 44.5894 57.8338 44.7914 58.0358 44.9933L58.2377 44.4683H57.7531Z" fill="#FF522A"/>
<path d="M58.8868 44.6295L59.4522 44.064L59.0484 44.3468C58.6041 44.064 59.0888 43.7409 59.2907 43.6602C58.5637 43.7813 59.008 44.3064 58.8868 44.6295Z" fill="#FF522A"/>
<path d="M60.0159 44.1855C60.3794 44.2259 60.2582 43.8624 60.137 43.7412C60.0966 43.9028 59.8543 44.0643 60.0159 44.1855Z" fill="#FF522A"/>
<path d="M82.5128 45.841C82.3917 45.7602 82.3109 45.7198 82.3109 45.5986C82.1897 45.7198 82.1897 45.8006 82.5128 45.841Z" fill="#FF522A"/>
<path d="M82.3105 45.599L82.3913 45.5586H82.3105V45.599Z" fill="#FF522A"/>
<path d="M75.0011 41.1159C74.5972 41.3986 74.3548 41.237 73.9913 41.3178L73.7894 40.8735C73.3855 41.0351 73.5875 41.2774 73.3048 41.4794C72.9413 41.1966 72.1335 41.439 71.9315 41.439C71.8104 41.237 72.0931 41.1563 72.1335 41.0351C71.6488 41.1966 71.6892 41.6409 71.0834 41.6409V41.5198C69.6294 42.166 67.7715 42.0044 66.1559 42.4083C66.2771 42.4487 66.2367 42.5295 66.2771 42.6102C64.5808 42.7718 62.6017 42.8122 61.2285 43.8623C62.1575 43.7411 63.7326 44.4681 64.6616 43.6604C65.0251 43.9835 65.5501 43.4988 65.6713 43.9835C67.0041 44.1854 67.5696 43.3776 68.862 43.3372C69.0639 43.418 68.9428 43.6604 69.0235 43.8623L68.0138 44.0642L68.6196 44.2662C68.3369 44.4681 67.6907 44.3066 67.6099 44.7509C68.4985 44.2662 69.9525 44.6297 70.7199 44.0642C70.3564 43.9431 69.9121 44.0642 69.4678 44.0642C69.2659 43.9027 68.9832 43.8219 68.9832 43.5796C70.2352 42.9334 71.2449 43.2565 72.5374 43.0545C72.8605 43.0141 73.3047 43.0545 73.3451 43.2565C73.1432 43.3372 73.3048 43.4988 73.1028 43.62C73.5471 43.418 73.1432 42.8526 73.7894 42.9334L73.7086 43.7007C73.951 42.893 74.5164 43.8219 74.9607 43.3776C75.1222 43.7008 74.8395 43.8623 74.476 43.8623C74.8799 43.9835 74.9203 43.5392 75.2434 43.5796L74.9203 44.2258C75.2838 43.62 75.5261 44.347 75.7281 44.5489C75.7685 44.3874 75.5665 43.9027 76.0108 43.9431C76.2127 44.0239 76.0916 44.1854 76.132 44.2662C76.1724 44.1046 76.2935 43.8219 76.6166 43.7815C76.657 43.9835 76.4147 44.1046 76.4147 44.3066C76.6166 44.3066 76.8186 44.2662 76.9801 44.4277C77.3436 44.2662 76.9397 44.1046 77.1821 43.9027C77.7879 44.0642 77.2225 44.6701 77.4648 45.1144C77.0205 45.4375 76.4551 45.5182 76.2127 45.6798L77.0609 45.5182C77.0205 45.7606 77.6263 45.9625 77.1821 46.2049C78.0302 46.4472 79.0399 46.1645 79.8477 45.9625C79.7265 45.8817 79.6054 45.8413 79.6054 45.6798C80.0093 45.5182 79.9689 45.8413 80.0496 46.0433C80.3728 45.8817 80.3324 45.4375 80.5343 45.1144C81.1805 45.4778 81.2613 45.2759 81.8268 45.801L81.7864 45.3567C82.1903 45.7202 82.2306 45.0336 82.6345 45.3163C82.6749 45.3971 82.5134 45.5182 82.3518 45.6394C82.7153 45.4778 82.6749 46.0029 83.0384 45.8413L82.7557 46.326C83.0384 46.326 83.4423 46.1645 83.3211 46.5683C83.8058 46.0837 84.6944 46.2856 85.3002 45.9625L85.2598 46.326C85.5829 45.8817 86.4311 46.3664 86.7138 45.801L86.7542 45.9625L87.4004 45.4375C87.6831 45.4778 87.6023 46.0433 87.6023 45.8817C88.2486 45.801 88.7332 45.7606 89.1371 45.9625C89.2583 45.4375 89.9045 45.3163 90.4296 45.2759C93.0144 45.599 95.7609 45.1144 98.1438 44.5489C98.5073 44.5085 98.992 43.9835 99.4362 43.7007C98.8708 43.5796 98.8304 43.8219 98.3054 43.8219C97.9015 43.7007 97.7399 43.1757 97.4168 42.8526L97.5784 43.2969C97.0129 43.6604 97.2149 43.0545 96.7706 43.4988V42.8122C96.609 43.1757 96.2455 42.893 96.084 42.691L95.9628 43.1757C95.5993 42.9334 95.3974 42.8122 95.2762 42.3679L95.3166 42.8122C95.1954 42.5295 93.9838 42.8526 94.3876 42.1256C94.3069 42.2064 94.1857 42.4487 93.9838 42.4083L93.9434 41.964C93.6203 42.0852 93.2568 42.166 93.176 41.9236C93.3375 41.8025 93.4183 41.6409 93.4587 41.439C92.1259 41.3582 93.176 42.8526 92.0047 42.893V42.6102L91.722 42.893L91.3989 42.5295C90.9546 43.4988 89.7429 42.4487 89.0159 42.9738C88.7332 43.0545 88.3697 42.4891 87.8447 42.5295L87.8851 42.9738C87.4408 42.5295 85.8656 42.2467 85.4617 41.237C85.0579 41.5601 85.5021 41.3178 85.5021 41.6813C84.6944 42.1256 84.654 41.439 84.2501 41.1966C83.7654 41.3986 84.6136 41.3582 84.3712 41.6813C83.6442 41.3582 83.7654 42.2064 82.8365 41.9236C82.7557 41.6813 83.0788 41.7621 83.1596 41.6005C82.5134 42.0448 81.3017 41.7621 80.3324 41.8429C79.2419 41.5198 77.6263 41.3986 76.3339 41.0351L76.2935 41.1966C75.7684 40.7928 75.1626 41.1563 74.5568 40.9947L75.0011 41.1159Z" fill="#FF522A"/>
<path d="M67.3262 45.2761L67.4474 45.6396L68.0532 45.3973C67.7705 45.0742 67.6493 45.3165 67.3262 45.2761Z" fill="#FF522A"/>
<path d="M67.4507 44.105L67.168 44.3069L67.6526 44.2665L67.4507 44.105Z" fill="#FF522A"/>
<path d="M74.9193 44.7107L74.8789 44.6299L73.748 44.953L74.9193 44.7107Z" fill="#FF522A"/>
<path d="M82.4716 46.2046C82.3504 46.4065 82.1485 46.3257 82.0273 46.4469L82.5524 46.245L82.4716 46.2046Z" fill="#FF522A"/>
<path d="M87.5614 47.7391C87.7633 47.0525 87.9653 47.7391 87.6825 47.1333C87.3594 47.2545 87.6422 47.4968 87.5614 47.7391Z" fill="#FF522A"/>
<path d="M88.7346 46.7697C88.573 46.7294 88.4519 46.8505 88.3711 46.9313C88.573 47.2544 88.6134 46.8909 88.7346 46.7697Z" fill="#FF522A"/>
</svg>
