<svg width="105" height="67" viewBox="0 0 105 67" fill="none" xmlns="http://www.w3.org/2000/svg">
<path d="M104.681 59.821C105.448 60.2249 104.681 59.3768 103.994 58.6902L102.984 58.6094L104.681 59.821Z" fill="#FF522A"/>
<path d="M100.88 57.035L99.7494 56.6311C99.3859 56.5099 98.982 56.3887 98.5781 56.2676C99.1032 56.4695 99.6686 56.6715 100.153 56.9138C101.567 58.2062 99.6282 57.2773 98.982 56.9946C101.648 58.5293 100.315 57.035 100.88 57.035Z" fill="#FF522A"/>
<path d="M96.6799 55.0158C95.3471 54.2888 95.549 54.8138 96.0741 55.2177C96.2357 55.0965 97.1646 55.4196 96.6799 55.0158Z" fill="#FF522A"/>
<path d="M11.1387 55.3391C11.2598 55.2987 11.4618 55.1775 11.381 55.3391C11.6637 55.016 11.6637 54.8544 11.1387 55.3391Z" fill="#FF522A"/>
<path d="M11.3784 55.3789C11.338 55.4597 11.2976 55.5405 11.2168 55.6212C11.2572 55.5809 11.2976 55.5001 11.338 55.4597L11.3784 55.3789Z" fill="#FF522A"/>
<path d="M38.6842 59.4179C39.29 58.8928 39.8151 58.5293 40.3401 58.2062C40.8652 57.9235 41.3902 57.6004 42.0364 57.1965L43.0058 57.2369C43.6924 56.7926 43.8136 56.6311 43.8943 56.4695C43.9751 56.3079 43.9751 56.1868 44.4598 55.8233C45.1868 55.6213 46.2773 55.1771 47.287 54.7732C48.2967 54.3693 49.1853 53.9654 49.5084 53.8846C50.0334 53.925 49.0237 54.3289 48.8218 54.5712C50.5989 53.8038 50.3162 53.4 52.6587 52.7134L52.7395 52.8345C55.4455 51.744 58.6766 50.9362 62.0289 50.492C65.3811 50.0073 68.895 49.8861 72.1665 49.8861C71.7222 49.8458 71.8433 49.765 71.6818 49.6438C75.1552 49.7246 78.871 50.2093 82.3444 50.8959C85.8582 51.5825 89.1297 52.471 91.9165 53.0768C91.028 52.7537 89.9779 52.2691 88.8874 51.8248C87.7565 51.3805 86.5448 50.8958 85.3332 50.5323C84.1215 50.0881 82.8291 49.8054 81.6578 49.563C81.052 49.4419 80.4865 49.4015 79.9211 49.3207C79.3557 49.2803 78.8306 49.2399 78.3459 49.2803C77.6593 49.038 76.7708 48.8764 75.963 48.836C75.1552 48.7553 74.4686 48.7149 74.1859 48.4321C73.4993 48.3514 72.8531 48.311 72.2472 48.2706C71.9645 48.2706 71.6414 48.2302 71.3587 48.2302C71.076 48.2302 70.7932 48.2302 70.5105 48.2302C69.9854 48.2302 69.4604 48.2706 68.9757 48.2706C68.4911 48.311 68.0064 48.3514 67.5217 48.4321C65.5831 48.6341 63.7252 48.9572 61.0999 49.2803C60.3325 49.3207 60.6557 49.038 60.4133 48.836C61.0999 48.7149 61.7865 48.5533 62.5135 48.4725C63.2001 48.3918 63.9271 48.2302 64.6138 48.1898C63.7656 48.1494 62.877 48.2302 62.0289 48.2302C62.5943 48.0686 63.5233 47.9475 64.4118 47.8667C65.26 47.7859 66.0274 47.6648 66.1889 47.4628C64.331 47.7859 61.9077 48.0283 59.5652 48.3918C57.2226 48.7956 54.9609 49.3207 53.4665 50.0073C53.83 49.9265 54.2338 49.8457 54.6377 49.765C55.0416 49.6842 55.4859 49.563 55.8898 49.4823C56.738 49.2803 57.6669 49.0784 58.5554 48.9572C59.3632 48.9572 60.5749 48.9168 60.5345 49.1187C58.0304 49.765 55.7686 50.29 53.5069 50.9362C51.2451 51.5421 48.9833 52.2287 46.6004 53.2788C45.9946 53.5615 45.308 53.8442 44.7021 54.0462C44.0963 54.2885 43.652 54.4501 43.4905 54.3693C44.2578 53.925 43.5712 54.0462 44.1771 53.6423C43.3693 54.127 43.4097 54.3289 43.3289 54.5308C43.2481 54.7328 43.0866 54.9347 41.8749 55.5002L41.8345 54.652C41.5518 55.2578 40.7844 55.5809 39.9363 55.9848C39.0881 56.3483 38.1591 56.7926 37.4725 57.4792C36.7455 57.6004 37.7149 56.7522 38.9669 55.9848C37.4725 56.7522 37.5533 57.1965 36.4628 57.9235C36.7051 57.5196 36.9071 57.0753 37.1494 56.6714C36.7051 57.3177 36.1801 57.6408 35.6147 57.8427C35.0492 58.085 34.5646 58.1658 34.2011 58.287C34.2011 58.4082 34.3626 58.4485 34.403 58.6101C34.403 58.7716 34.2414 59.0544 33.4337 59.6602C32.747 60.1045 33.1105 59.6198 32.949 59.6198C32.9086 59.7006 32.8682 59.7814 32.7874 59.9429C32.7471 60.0237 32.7067 60.1045 32.6259 60.1853C32.5855 60.266 32.5047 60.4276 32.4239 60.3468C32.1816 60.1853 31.8989 59.8622 31.4546 59.3775C31.4142 59.1755 31.6162 59.2563 31.7777 59.3371C31.9797 59.4179 32.1412 59.539 32.222 59.4583C31.9797 59.0948 31.697 58.812 31.4546 58.5293C31.2123 58.2466 31.0103 57.9639 30.8084 57.6812C29.5563 56.7118 30.6872 57.9639 29.7987 57.4792C28.9505 56.6311 28.9909 56.4695 29.2332 56.3887C29.4756 56.3079 29.9198 56.3079 29.6775 55.8233C30.0814 56.0252 30.4449 56.3079 30.8084 56.5503L31.3334 56.9542C31.4546 57.0349 31.5758 57.1157 31.6566 57.2369C32.1008 57.6004 32.4239 57.9235 32.6259 58.085C32.6663 58.1658 32.7067 58.0447 32.747 58.0447C32.7874 58.0043 32.8278 57.9639 32.8278 57.9235L32.7067 58.0043L32.6663 58.0447L32.6259 58.0043C32.4239 57.8023 32.222 57.56 32.0201 57.3581C31.8989 57.2369 31.7777 57.1561 31.6566 57.0349C31.6162 56.9945 31.5354 56.9138 31.4546 56.8734L31.3738 56.7926L31.2123 56.6714C31.3738 56.6714 31.0103 56.1464 30.7276 55.7829C30.4853 55.4194 30.4045 55.2174 31.2527 55.7829C29.8795 54.3693 28.0216 53.1576 26.0021 52.3902C23.9827 51.6228 21.6805 51.3805 19.7823 51.6229C20.3073 51.6632 21.0343 51.744 20.9132 51.9056C20.4285 51.946 20.065 51.946 19.8227 51.946C19.5803 51.946 19.4188 51.9056 19.2976 51.9056C19.0553 51.8652 19.0149 51.744 18.7726 51.6632C17.359 52.0671 17.6417 52.471 16.8743 52.9961C15.4607 53.198 14.7337 53.5211 14.0067 53.8038C13.8451 53.8846 13.6836 53.9654 13.4816 54.0058C13.3201 54.0866 13.0778 54.1673 12.997 54.2077C12.7546 54.2885 12.4719 54.3693 12.1892 54.4097C12.2296 54.5712 12.27 54.6924 12.3104 54.8539C11.8661 54.9751 11.6641 55.2175 11.4218 55.5406C11.1795 55.8637 10.8968 56.2272 10.5737 56.5099C10.5333 56.5503 10.4525 56.6311 10.3717 56.6714C10.3717 56.5907 10.5333 56.3887 10.6948 56.1464C10.816 55.9848 10.9371 55.7829 11.0583 55.6213C10.9371 55.7829 10.816 55.904 10.7352 55.9848C10.5736 56.1868 10.4929 56.106 10.4525 56.1464C10.4121 56.1464 10.3313 56.1868 10.0486 56.6714L10.816 55.1771C10.7352 55.2982 10.614 55.4194 10.5333 55.5809L10.4525 55.7021L10.4121 55.7425V55.7829C10.4121 55.7021 10.4121 55.6617 10.3717 55.5809C10.3717 55.3386 10.4121 55.0963 10.6544 54.7732C10.3717 54.8943 10.2101 54.2885 10.2101 53.6423C10.1698 53.3192 10.2101 52.9557 10.2101 52.5922C10.2101 52.3902 10.2101 52.2287 10.2101 52.0267C10.2101 51.7036 10.2505 51.3401 10.2505 51.0574L10.614 51.2594C10.4929 50.6131 10.6948 49.4015 10.9371 48.2706C11.0583 47.7052 11.1795 47.1397 11.3006 46.655C11.3814 46.1704 11.4218 45.7261 11.3814 45.403L11.5834 45.2414C11.6238 44.7972 11.6641 44.3529 11.7045 43.9086C11.7449 43.4643 11.7853 43.0201 11.8661 42.5758C12.3104 41.4853 12.7143 42.0507 12.5931 41.8892C13.4009 39.4255 14.2086 37.5272 15.0972 36.1136C14.8145 35.5078 15.9453 32.9633 16.9955 31.065C18.1667 29.2071 19.4592 27.3492 20.792 25.6125L21.317 24.9663C21.4382 24.8047 21.5594 24.6432 21.7209 24.4816C21.9633 24.1585 22.246 23.8758 22.5287 23.5527C22.8114 23.2296 23.0941 22.9469 23.3769 22.6641C23.5384 22.5026 23.7 22.3814 23.8211 22.2199L23.9423 22.0987C23.9423 22.1391 23.9827 22.1795 23.9827 22.2199L24.0635 22.5026C24.3462 23.27 24.6693 24.0374 25.1136 24.7644L25.5175 25.3702L26.0425 26.0972C26.406 26.5818 26.8099 27.0261 27.2138 27.4704C27.4158 27.6723 27.6581 27.8743 27.86 28.0762C28.062 28.2782 28.3043 28.4801 28.5466 28.6417C28.789 28.8436 28.9505 28.9648 29.1525 29.0859C29.3544 29.2071 29.5564 29.3283 29.7583 29.4494C30.5661 29.9341 31.5354 30.338 32.5451 30.6611C32.949 30.7823 33.3529 30.863 33.7568 30.9438L33.9183 30.9842H33.9587L33.9183 31.0246L33.7164 31.1458L33.2721 31.3881C32.6663 31.7516 32.0605 32.0747 31.4546 32.4382C30.8084 32.7613 30.243 33.2056 29.5564 33.7307C28.8697 34.2557 28.0216 34.9019 27.0926 35.4674C28.3043 34.9423 28.9505 34.5788 29.5564 34.2557C30.1622 33.8922 30.7276 33.5691 31.8585 33.044C33.7568 32.2767 35.3319 32.0747 37.7956 31.2669L36.0185 31.6304C36.382 31.3881 36.7051 31.1862 36.9475 31.065C36.9879 31.065 36.9879 31.0246 36.9475 31.0246L36.9071 30.9842L36.8667 30.9438L36.8263 30.8631C36.8263 30.8227 36.8263 30.7823 36.8263 30.7015C36.8667 30.6207 36.8667 30.5399 36.7859 30.4592C36.382 30.3784 35.8166 30.2572 35.0088 30.0957L37.0686 29.9341C36.5032 29.8533 35.9378 29.7322 35.3723 29.611C34.8069 29.4494 34.3626 29.2879 33.8375 29.1263L33.4741 29.0052L33.3125 28.9244L33.1509 28.8436C32.949 28.7628 32.7471 28.6417 32.5855 28.5609C32.222 28.3589 31.8585 28.1974 31.7373 28.0358C31.3334 27.9551 30.9296 27.9147 30.5661 27.8743C30.3641 27.7127 30.2026 27.5512 30.041 27.3896C29.9602 27.2685 29.8391 27.1473 29.7583 27.0665C29.5967 26.8646 29.4756 26.6222 29.3544 26.4607C29.1121 26.0972 29.0313 25.7741 29.0717 25.4913L28.8294 25.8548C28.789 25.7337 28.587 25.451 28.3043 25.0471C28.1831 24.8855 28.0216 24.6432 27.9004 24.4412L27.6985 24.1181C27.6581 24.0777 27.6177 23.997 27.6177 23.9566C27.5773 23.8758 27.5369 23.8354 27.4965 23.7546C27.4157 23.5931 27.2946 23.4315 27.2138 23.2296C27.133 23.068 27.0522 22.9065 26.9715 22.7045C26.8503 22.3814 26.7695 22.0583 26.7291 21.8564C26.6484 21.4121 26.7291 21.2909 27.133 21.816C26.9715 21.4929 26.7695 21.2909 26.5676 20.887C26.3656 20.4831 26.1637 19.9985 25.9214 19.1907L26.0829 18.2618C25.8406 17.6155 25.5982 16.9289 25.3963 16.3635C25.2751 16.4443 25.1944 16.4847 25.0732 16.5654L24.9116 16.6462C24.8713 16.6866 24.8309 16.6866 24.7501 16.7674C24.5077 17.0097 24.2654 17.2117 24.0231 17.4136C23.5788 17.7771 23.2557 18.0194 23.0942 18.0194C23.9423 17.1309 24.3058 16.5654 24.6693 16C23.7404 16.8078 23.0538 17.454 22.5287 17.979C22.0036 18.5041 21.6402 18.908 21.3574 19.2311C20.8324 19.9177 20.7516 20.2812 20.7112 20.5639C20.6708 20.887 20.6304 21.1698 20.3477 21.6948C20.1862 21.9775 19.9842 22.3006 19.6611 22.7449C19.4996 22.9469 19.2976 23.2296 19.1361 23.4719C18.9745 23.6739 18.8129 23.9162 18.611 24.1585L18.4091 23.9566L17.884 25.1682L16.7935 26.0568C16.6723 27.1069 15.6626 28.5205 14.6529 30.1764C13.6028 31.792 12.5123 33.5691 12.1084 35.0635C11.6641 36.1944 10.4929 37.3656 9.72549 39.5466H10.1698C9.64471 40.314 8.71576 42.2931 7.8676 44.3125C7.01944 46.3319 6.25205 48.4321 5.60583 49.2399C5.64622 51.0978 5.727 49.0784 6.05011 49.1591C6.00972 50.0477 5.96933 50.6939 5.88856 51.2594C5.84817 51.4209 5.84816 51.5825 5.80777 51.744C5.76739 51.946 5.727 52.1479 5.727 52.3095C5.64623 52.673 5.60583 52.9961 5.56544 53.3192C5.44427 53.9654 5.3635 54.4905 5.24233 55.0963C5.20195 55.4194 5.12117 55.7021 5.08078 56.0656C5.04039 56.4291 5 56.7522 5 57.1561C5.20194 58.8524 5.20194 58.1254 5.20194 57.2369C5.20194 56.7926 5.20195 56.3079 5.28273 55.9848C5.32311 55.7021 5.40389 55.6213 5.48467 56.0656C5.48467 56.7118 5.48467 57.2773 5.48467 57.7619C5.48467 58.0043 5.48467 58.2062 5.52506 58.4485C5.56545 58.6505 5.56544 58.812 5.60583 58.9736C5.68661 59.6198 5.80778 60.0641 5.92895 60.5084C6.05011 60.9526 6.17128 61.4373 6.29244 62.2047C6.33283 62.5682 6.41361 63.0529 6.49439 63.6183C6.49439 63.7799 6.53478 63.901 6.53478 64.0626C6.53478 64.1433 6.53477 64.2241 6.57516 64.3049C6.57516 64.3857 6.57516 64.5069 6.61555 64.5069C6.65594 64.5876 6.69633 64.6684 6.73672 64.7896C6.65594 65.1127 6.57517 65.1127 6.49439 65.0723L6.41361 64.9915C6.41361 64.9915 6.37321 64.9107 6.37321 64.83C6.37321 64.7492 6.33284 64.7088 6.33284 64.628C6.29245 64.3857 6.25205 64.1433 6.17127 64.0626C6.25205 64.3453 6.29244 64.6684 6.37321 64.9915C6.45399 65.0319 6.49438 65.1127 6.57516 65.1531C6.61555 65.1531 6.65594 65.2742 6.69633 65.355C6.73672 65.4358 6.7771 65.557 6.81749 65.6377C6.85788 65.6781 6.85789 65.7185 6.89827 65.7993C6.93866 65.9205 6.93866 66.0012 6.97904 66.1224C7.01943 66.3243 7.10022 66.5263 7.14061 66.7686C7.78683 65.8397 8.47344 64.83 9.16005 63.8606C9.48316 63.4164 9.80626 62.9721 10.1294 62.4874C10.2909 62.2451 10.4525 62.0431 10.614 61.8008C10.7756 61.5585 10.9371 61.3161 11.0583 61.1546C11.341 60.7911 11.6238 60.4276 11.9065 60.0237L12.1084 59.741C12.1892 59.6602 12.27 59.539 12.3104 59.4987L12.7142 59.1352C12.997 58.8928 13.2393 58.6505 13.522 58.4081C13.8047 58.2062 14.0471 58.0447 14.3298 57.8427L14.7337 57.56L14.8145 57.4792L14.8548 57.4388L14.976 57.3984L15.4203 57.1561C15.703 57.0349 15.9857 56.9138 16.2685 56.7926C16.5512 56.6714 16.8339 56.5503 17.1166 56.4695C17.2378 56.4291 17.3993 56.3887 17.5205 56.3483C17.6417 56.3079 17.8032 56.2676 17.9244 56.2272C18.1667 56.1868 18.4091 56.1464 18.6514 56.1464C18.8937 56.106 19.1361 56.106 19.4188 56.106C19.9438 56.0656 20.4689 56.106 20.9535 56.1464C21.9633 56.2676 23.0538 56.5503 24.1443 57.0753C25.1944 57.56 26.2445 58.2466 27.133 59.0544C27.3754 59.2563 27.5773 59.4583 27.7792 59.6602C27.9004 59.741 27.9812 59.8622 28.062 59.9833L28.2235 60.1449C28.2639 60.1853 28.3851 60.3064 28.4255 60.3468L28.587 60.5488C29.0313 61.1142 29.4756 61.6796 29.8795 62.2451C30.2833 62.8509 30.7276 63.4568 31.1315 64.0222L31.2931 63.9818C31.4546 64.2645 31.6162 64.5069 31.8181 64.7896C32.6259 64.2645 33.4741 63.6183 34.3222 62.9317C35.0896 62.3259 35.8974 61.72 36.6648 61.0738L36.9475 60.8315L37.109 60.7103L37.1898 60.6699L37.2302 60.6295L37.5533 60.3872C37.7553 60.2257 37.9976 60.0641 38.1995 59.9429C38.6438 59.6198 39.1285 59.3775 39.6535 59.0948L38.6842 59.4179Z" fill="#FF522A"/>
<path d="M67.3195 46.9377L66.8752 46.5742C66.027 46.655 65.2193 46.8165 64.3711 46.9377C64.8961 47.0589 65.2596 47.0589 65.7039 47.0185C66.1482 46.9377 66.6329 46.8973 67.3195 46.9377Z" fill="#FF522A"/>
<path d="M66.7674 47.2019L68.0598 47C67.3732 47.0404 66.6866 47.0404 66 47.0808C66.2019 47.1212 66.4847 47.1616 66.7674 47.2019Z" fill="#FF522A"/>
<path d="M37.0254 56.2275L37.3485 56.1064L38.3178 55.4197C38.6409 55.1774 38.9641 54.9755 39.3276 54.7735C39.9738 54.3292 40.6604 53.9254 41.347 53.5215L40.2565 54.1677C39.893 54.3696 39.5295 54.612 39.166 54.8543C38.439 55.2582 37.7524 55.7429 37.0254 56.2275Z" fill="#FF522A"/>
<path d="M11.4193 54.6513C11.6616 54.1666 11.8636 54.0858 12.0655 53.7627C11.8636 54.005 11.6212 54.2878 11.3789 54.6109L11.4193 54.6513Z" fill="#FF522A"/>
<path d="M14.4082 43.0204C14.0447 42.0511 14.9333 41.5664 14.0043 42.3338C13.7216 43.5051 14.3274 42.5761 14.4082 43.0204Z" fill="#FF522A"/>
<path d="M15.2197 38.2949C14.8966 38.9411 14.8562 39.345 14.7754 39.7489C15.4216 38.9815 15.1389 38.8604 15.2197 38.2949Z" fill="#FF522A"/>
<path d="M62.7531 60.4678C62.5511 60.5889 62.8338 60.7909 63.0358 60.9928L63.2377 60.4678H62.7531Z" fill="#FF522A"/>
<path d="M63.8868 60.6295L64.4522 60.064L64.0484 60.3468C63.6041 60.064 64.0888 59.7409 64.2907 59.6602C63.5637 59.7813 64.008 60.3064 63.8868 60.6295Z" fill="#FF522A"/>
<path d="M65.0159 60.1855C65.3794 60.2259 65.2582 59.8624 65.137 59.7412C65.0966 59.9028 64.8543 60.0643 65.0159 60.1855Z" fill="#FF522A"/>
<path d="M87.5128 61.841C87.3917 61.7602 87.3109 61.7198 87.3109 61.5986C87.1897 61.7198 87.1897 61.8006 87.5128 61.841Z" fill="#FF522A"/>
<path d="M87.3105 61.599L87.3913 61.5586H87.3105V61.599Z" fill="#FF522A"/>
<path d="M80.0011 57.1154C79.5972 57.3981 79.3548 57.2365 78.9913 57.3173L78.7894 56.873C78.3855 57.0346 78.5875 57.2769 78.3048 57.4789C77.9413 57.1962 77.1335 57.4385 76.9315 57.4385C76.8104 57.2365 77.0931 57.1558 77.1335 57.0346C76.6488 57.1962 76.6892 57.6404 76.0834 57.6404V57.5193C74.6294 58.1655 72.7715 58.0039 71.1559 58.4078C71.2771 58.4482 71.2367 58.529 71.2771 58.6098C69.5808 58.7713 67.6017 58.8117 66.2285 59.8618C67.1575 59.7406 68.7326 60.4676 69.6616 59.6599C70.0251 59.983 70.5501 59.4983 70.6713 59.983C72.0041 60.1849 72.5696 59.3771 73.862 59.3368C74.0639 59.4175 73.9428 59.6599 74.0235 59.8618L73.0138 60.0638L73.6196 60.2657C73.3369 60.4676 72.6907 60.3061 72.6099 60.7504C73.4985 60.2657 74.9525 60.6292 75.7199 60.0638C75.3564 59.9426 74.9121 60.0638 74.4678 60.0638C74.2659 59.9022 73.9832 59.8214 73.9832 59.5791C75.2352 58.9329 76.2449 59.256 77.5374 59.054C77.8605 59.0136 78.3047 59.054 78.3451 59.256C78.1432 59.3368 78.3048 59.4983 78.1028 59.6195C78.5471 59.4175 78.1432 58.8521 78.7894 58.9329L78.7086 59.7003C78.951 58.8925 79.5164 59.8214 79.9607 59.3772C80.1222 59.7003 79.8395 59.8618 79.476 59.8618C79.8799 59.983 79.9203 59.5387 80.2434 59.5791L79.9203 60.2253C80.2838 59.6195 80.5261 60.3465 80.7281 60.5484C80.7685 60.3869 80.5665 59.9022 81.0108 59.9426C81.2127 60.0234 81.0916 60.1849 81.132 60.2657C81.1724 60.1041 81.2935 59.8214 81.6166 59.781C81.657 59.983 81.4147 60.1041 81.4147 60.3061C81.6166 60.3061 81.8186 60.2657 81.9801 60.4272C82.3436 60.2657 81.9397 60.1041 82.1821 59.9022C82.7879 60.0638 82.2225 60.6696 82.4648 61.1139C82.0205 61.437 81.4551 61.5177 81.2127 61.6793L82.0609 61.5177C82.0205 61.7601 82.6263 61.962 82.1821 62.2044C83.0302 62.4467 84.0399 62.164 84.8477 61.962C84.7265 61.8813 84.6054 61.8409 84.6054 61.6793C85.0093 61.5177 84.9689 61.8409 85.0496 62.0428C85.3728 61.8812 85.3324 61.437 85.5343 61.1139C86.1805 61.4774 86.2613 61.2754 86.8268 61.8005L86.7864 61.3562C87.1903 61.7197 87.2306 61.0331 87.6345 61.3158C87.6749 61.3966 87.5134 61.5177 87.3518 61.6389C87.7153 61.4774 87.6749 62.0024 88.0384 61.8409L87.7557 62.3255C88.0384 62.3255 88.4423 62.164 88.3211 62.5679C88.8058 62.0832 89.6944 62.2851 90.3002 61.962L90.2598 62.3255C90.5829 61.8812 91.4311 62.3659 91.7138 61.8005L91.7542 61.962L92.4004 61.437C92.6831 61.4774 92.6023 62.0428 92.6023 61.8812C93.2486 61.8005 93.7332 61.7601 94.1371 61.962C94.2583 61.437 94.9045 61.3158 95.4296 61.2754C98.0144 61.5985 100.761 61.1139 103.144 60.5484C103.507 60.508 103.992 59.983 104.436 59.7003C103.871 59.5791 103.83 59.8214 103.305 59.8214C102.901 59.7003 102.74 59.1752 102.417 58.8521L102.578 59.2964C102.013 59.6599 102.215 59.054 101.771 59.4983V58.8117C101.609 59.1752 101.246 58.8925 101.084 58.6905L100.963 59.1752C100.599 58.9329 100.397 58.8117 100.276 58.3674L100.317 58.8117C100.195 58.529 98.9838 58.8521 99.3876 58.1251C99.3069 58.2059 99.1857 58.4482 98.9838 58.4078L98.9434 57.9635C98.6203 58.0847 98.2568 58.1655 98.176 57.9232C98.3375 57.802 98.4183 57.6404 98.4587 57.4385C97.1259 57.3577 98.176 58.8521 97.0047 58.8925V58.6098L96.722 58.8925L96.3989 58.529C95.9546 59.4983 94.7429 58.4482 94.0159 58.9733C93.7332 59.054 93.3697 58.4886 92.8447 58.529L92.8851 58.9733C92.4408 58.529 90.8656 58.2463 90.4617 57.2365C90.0579 57.5597 90.5021 57.3173 90.5021 57.6808C89.6944 58.1251 89.654 57.4385 89.2501 57.1962C88.7654 57.3981 89.6136 57.3577 89.3712 57.6808C88.6442 57.3577 88.7654 58.2059 87.8365 57.9232C87.7557 57.6808 88.0788 57.7616 88.1596 57.6C87.5134 58.0443 86.3017 57.7616 85.3324 57.8424C84.2419 57.5193 82.6263 57.3981 81.3339 57.0346L81.2935 57.1962C80.7684 56.7923 80.1626 57.1558 79.5568 56.9942L80.0011 57.1154Z" fill="#FF522A"/>
<path d="M72.3262 61.2761L72.4474 61.6396L73.0532 61.3973C72.7705 61.0742 72.6493 61.3165 72.3262 61.2761Z" fill="#FF522A"/>
<path d="M72.4507 60.1045L72.168 60.3064L72.6526 60.266L72.4507 60.1045Z" fill="#FF522A"/>
<path d="M79.9193 60.7107L79.8789 60.6299L78.748 60.953L79.9193 60.7107Z" fill="#FF522A"/>
<path d="M87.4716 62.2041C87.3504 62.406 87.1485 62.3253 87.0273 62.4464L87.5524 62.2445L87.4716 62.2041Z" fill="#FF522A"/>
<path d="M92.5614 63.7396C92.7633 63.053 92.9653 63.7396 92.6825 63.1338C92.3594 63.255 92.6422 63.4973 92.5614 63.7396Z" fill="#FF522A"/>
<path d="M93.7346 62.7697C93.573 62.7294 93.4519 62.8505 93.3711 62.9313C93.573 63.2544 93.6134 62.8909 93.7346 62.7697Z" fill="#FF522A"/>
<path d="M8.67522 23.7593C8.67522 23.7593 9.67562 23.7446 10.189 24.0604C10.7024 24.3762 11.3724 24.9144 11.4589 25.302C11.5446 25.6833 11.2694 25.5873 11.2694 25.5873C11.2694 25.5873 12.056 25.9804 12.0054 26.7296C11.9548 27.4787 11.9548 27.4787 11.9548 27.4787C11.9548 27.4787 11.7471 27.1926 11.5654 27.0864C11.5654 27.0864 12.1317 28.2912 11.4532 28.8883C10.7748 29.4854 9.49698 30.1921 8.7262 29.8855L8.95922 29.5954C8.95922 29.5954 8.31959 30.1441 7.30705 29.6433C6.29451 29.1425 6.33556 27.9596 6.33556 27.9596L6.57257 28.1102C6.57257 28.1102 6.18032 27.7497 6.19602 26.7964C6.21387 25.805 6.55238 24.6337 6.55238 24.6337L6.62532 25.1867C6.626 25.1929 7.4856 23.5992 8.67522 23.7593Z" fill="white"/>
<path d="M7.5559 27.9332C8.64611 28.3373 9.61059 27.5893 9.92296 26.6981C9.92535 26.8932 10.1414 27.1406 9.8581 27.3165C11.1246 26.7371 10.6176 25.2674 10.2097 24.0705C10.7238 24.3925 11.3737 24.9202 11.4588 25.2953C11.5445 25.6767 11.2694 25.5807 11.2694 25.5807C11.2694 25.5807 12.0559 25.9738 12.0053 26.7229C11.9547 27.4721 11.9547 27.4721 11.9547 27.4721C11.9547 27.4721 11.747 27.186 11.5653 27.0798C11.5653 27.0798 12.1316 28.2846 11.4594 28.8811C10.7809 29.4782 9.50313 30.1848 8.73234 29.8782L8.96536 29.5881C8.96536 29.5881 8.32574 30.1368 7.3132 29.636C6.30066 29.1352 6.34171 27.9523 6.34171 27.9523L6.57871 28.1029C6.57871 28.1029 6.19337 27.7479 6.2042 26.8078C6.59611 26.9919 7.02832 27.0833 7.46426 27.0358C6.59443 27.4962 7.87837 27.5388 7.5559 27.9332Z" fill="#EAE9D7"/>
<path d="M28.4637 19.0097C28.4637 19.0097 12.7821 21.8743 12.1351 21.258C11.8741 21.0029 11.773 20.3081 11.742 19.5616C11.74 19.4861 11.7388 19.417 11.7369 19.3416C11.7377 19.2911 11.7322 19.2412 11.733 19.1907C11.7345 19.1465 11.7304 19.1091 11.7319 19.0648C11.7292 18.6366 11.7473 18.225 11.7694 17.9075C11.7724 17.8189 11.7822 17.7359 11.7872 17.6661C11.8008 17.444 11.8163 17.2974 11.8198 17.2718C11.7668 17.4792 10.137 24.1417 9.92845 25.0027C9.71504 25.8767 7.77605 25.7795 7.63152 24.6862C7.487 23.5928 6.77278 16.6441 6.435 13.5489C6.09721 10.4538 17.9397 5.55668 18.7443 5.53819C19.5552 5.51902 22.383 4.98354 23.7227 6.92326C24.7024 8.33511 26.7783 14.1332 27.8267 17.1571C28.2133 18.2745 28.4637 19.0097 28.4637 19.0097Z" fill="#F31B25"/>
<path d="M28.4642 19.0094C28.4642 19.0094 12.7826 21.874 12.1356 21.2577C11.8746 21.0026 11.7736 20.3078 11.7425 19.5613C11.7406 19.4859 11.7393 19.4167 11.7374 19.3413C11.7382 19.2908 11.7328 19.2409 11.7336 19.1904C11.735 19.1462 11.7309 19.1088 11.7324 19.0645C11.7298 18.6363 11.7479 18.2247 11.77 17.9072C11.7729 17.8186 11.7772 17.7425 11.7822 17.6727L11.7815 17.6664C11.8142 17.562 11.8358 17.4715 11.8358 17.4715C12.2645 15.5089 12.8266 13.9036 14.1289 12.3246C14.7468 11.5766 15.3581 10.9994 15.8668 10.1751C16.3971 9.31688 17.0372 8.48448 17.9334 7.97705C18.2721 7.78885 18.6411 7.64775 19.0135 7.53778C20.0325 7.23122 21.1404 7.10402 22.1636 7.41457C21.3379 7.64333 20.5065 7.879 19.742 8.26493C18.499 8.88583 17.3279 10.2236 17.2226 11.6845C17.2478 11.9149 18.0075 11.4854 18.4806 11.5472C16.6749 13.0173 13.3991 13.7214 13.306 16.0443C13.1877 17.0971 15.1492 15.9566 16.2644 16.6479C15.6168 17.0651 14.8196 17.1521 14.4335 17.8875C16.9807 18.9959 19.6524 18.0111 22.2309 17.2697C23.3516 16.9142 24.4791 16.6777 25.5562 17.0202C25.5562 17.0202 27.4497 17.0468 27.574 17.1466C27.6612 17.1371 27.7498 17.1401 27.8341 17.1624C28.2138 18.2742 28.4642 19.0094 28.4642 19.0094Z" fill="#DE1725"/>
<path d="M29.1549 19.4576C29.0766 19.2015 28.9725 18.9986 28.833 18.8752C27.8938 18.0072 23.2205 18.032 19.8907 18.7609C16.5609 19.4898 11.8312 18.651 11.1869 20.5426C11.1869 20.5426 11.0042 22.3334 11.2687 24.006C11.3412 24.4392 11.4386 24.8697 11.5817 25.2574C12.2706 27.1232 15.9365 25.028 18.4322 24.5098C20.9279 23.9917 27.8167 24.5192 28.5394 24.3269C29.1575 24.1586 29.619 20.9384 29.1549 19.4576Z" fill="white"/>
<path d="M23.0573 22.8393C23.1198 22.3725 23.7172 22.5342 23.7797 22.0673C22.2165 22.5845 20.6656 23.2138 18.9156 23.0582C19.2459 22.9087 19.4512 22.6531 19.5259 22.2984C18.1123 23.1458 16.5553 23.6624 14.8365 23.8499C15.4094 23.7874 15.5711 23.19 15.5215 22.7354C14.2625 23.3832 12.7554 24.2409 11.2539 23.9951C11.3264 24.4284 11.4238 24.8589 11.567 25.2466C12.2558 27.1124 15.9217 25.0171 18.4175 24.499C20.9132 23.9808 27.802 24.5083 28.5247 24.316C29.1435 24.1539 29.605 20.9337 29.1409 19.453C28.7788 21.3327 25.1784 22.8726 23.0573 22.8393Z" fill="#EAE9D7"/>
<path opacity="0.2" d="M11.1293 11.9916C10.9603 10.3275 9.60874 10.8783 8.9639 11.2637C8.17085 11.7347 7.59431 12.5728 7.63907 13.3871C7.70059 14.4706 11.3078 13.743 11.1293 11.9916Z" fill="white"/>
</svg>
